<?xml version="1.0" encoding="UTF-8" standalone="no"?>
<!-- Created with Inkscape (http://www.inkscape.org/) -->

<svg
   xmlns:dc="http://purl.org/dc/elements/1.1/"
   xmlns:cc="http://creativecommons.org/ns#"
   xmlns:rdf="http://www.w3.org/1999/02/22-rdf-syntax-ns#"
   xmlns:svg="http://www.w3.org/2000/svg"
   xmlns="http://www.w3.org/2000/svg"
   xmlns:sodipodi="http://sodipodi.sourceforge.net/DTD/sodipodi-0.dtd"
   xmlns:inkscape="http://www.inkscape.org/namespaces/inkscape"
   width="116.00079mm"
   height="285.54312mm"
   viewBox="0 0 411.02639 1011.767"
   id="svg4383"
   version="1.1"
   inkscape:version="0.91pre3 r13670"
   sodipodi:docname="carott_jumping.svg">
  <defs
     id="defs4385" />
  <sodipodi:namedview
     id="base"
     pagecolor="#ffffff"
     bordercolor="#666666"
     borderopacity="1.0"
     inkscape:pageopacity="0.0"
     inkscape:pageshadow="2"
     inkscape:zoom="0.49497475"
     inkscape:cx="428.54395"
     inkscape:cy="417.5975"
     inkscape:document-units="px"
     inkscape:current-layer="g4342"
     showgrid="false"
     inkscape:window-width="1920"
     inkscape:window-height="1018"
     inkscape:window-x="-8"
     inkscape:window-y="-8"
     inkscape:window-maximized="1"
     fit-margin-top="0"
     fit-margin-left="0"
     fit-margin-right="0"
     fit-margin-bottom="0" />
  <metadata
     id="metadata4388">
    <rdf:RDF>
      <cc:Work
         rdf:about="">
        <dc:format>image/svg+xml</dc:format>
        <dc:type
           rdf:resource="http://purl.org/dc/dcmitype/StillImage" />
        <dc:title></dc:title>
      </cc:Work>
    </rdf:RDF>
  </metadata>
  <g
     inkscape:label="Calque 1"
     inkscape:groupmode="layer"
     id="layer1"
     transform="translate(2.6558592,-37.90725)">
    <g
       transform="matrix(-14.228567,0,0,14.228567,2810.1825,-162.82957)"
       id="g4342"
       inkscape:export-xdpi="302.1745"
       inkscape:export-ydpi="302.1745">
      <path
         inkscape:connector-curvature="0"
         id="path3363"
         d="m 194.37244,28.543344 -8.4828,-1.519408 -4.49081,0.748143 -7.66385,-5.000249 -3.43133,-0.990514 -0.0123,-4.464274 10.18258,-1.149594 3.45431,1.554743 3.57991,0.47581 4.87282,3.079387 2.91308,2.141952 z"
         style="fill:#008000;fill-rule:evenodd;stroke:none;stroke-width:1px;stroke-linecap:butt;stroke-linejoin:miter;stroke-opacity:1" />
      <path
         inkscape:connector-curvature="0"
         id="path3361"
         d="m -36.719682,94.493536 -0.25081,1.651571 13.648712,-11.201514 c 0,0 10.125,-29.651791 9.160722,-33.75 -0.964292,-4.098221 -0.482153,-20.00893 -1.928584,-20.491069 -1.446416,-0.482153 -7.955347,-4.821431 -11.8125,-4.098222 -3.857138,0.723222 -11.089278,0 -13.982138,8.67857 -2.892862,8.678569 9.210105,45.174078 5.164598,59.210664 z"
         style="fill:#ff7f2a;fill-rule:evenodd;stroke:none;stroke-width:1.35000002px;stroke-linecap:butt;stroke-linejoin:miter;stroke-opacity:1"
         transform="matrix(-0.74074074,0,0,0.74074074,162.42395,13.348287)"
         sodipodi:nodetypes="cccscssc" />
      <path
         inkscape:connector-curvature="0"
         d="m -43.1085,37.023631 c 0,-6.6 5.399,-12 12,-12 l 1.499,0 0,-1.5 c 0,-4.199 -1.310209,-4.499254 -5.401041,-3.552313 -1.023925,0.237018 -2.259693,0.215139 -3.15951,-0.346404 -0.561542,0.899817 -1.517813,1.429106 -2.685927,1.699499 -2.485285,0.575291 -4.823833,-0.884945 -5.398899,-3.369256 -0.946941,-4.090832 1.523848,-8.0500242 5.615653,-8.9971907 0.73068,-0.1691369 1.46136,-0.3382738 2.079505,-0.3284216 0.617023,-1.9904227 2.358705,-3.7782551 4.550744,-4.2856657 1.752657,-0.405703 3.383153,-0.013297 4.856687,1.0313072 0.718505,-1.5520149 2.156863,-2.6547957 3.910494,-3.0607242 2.192039,-0.5074106 4.396253,0.3680568 5.824907,1.8839221 0.697078,-0.3142986 1.426783,-0.48321 2.157463,-0.6523468 4.09278,-0.9473921 8.0509983,1.5236216 8.9979392,5.6144531 0.5750654,2.4843106 -0.8839712,4.8236076 -3.3692562,5.3988986 -1.168113,0.270394 -2.259694,0.215139 -3.15951,-0.346404 -0.561543,0.899817 -1.662001,1.462482 -2.684953,1.699274 -4.091806,0.947166 -9.134296,3.412372 -9.134296,7.611372 l 0,1.5 1.5,0 c 6.6,0 11.999,5.4 11.999,12 l 0,3 c 0,14.999 -4.3863,49.189036 -19.394607,55.051743 -0.95168,0.32681 -5.187161,2.123951 -6.150342,1.178022 -0.96318,-0.94593 0.335692,-0.112158 0.750342,-1.178022 C -32.314565,79.963575 -43.1085,55.022631 -43.1085,40.023631 Z m -0.223658,-19.745022 c 0.202739,0.875842 0.922817,1.32605 1.799633,1.123086 0.876815,-0.202964 1.325824,-0.923792 1.123085,-1.799633 -0.202738,-0.875841 0.24627,-1.596669 1.123086,-1.799633 0.875841,-0.202739 1.596894,0.247244 1.799633,1.123085 0.202739,0.875842 0.922817,1.32605 1.799633,1.123086 2.922718,-0.676548 5.676674,-0.0823 8.015971,1.376737 -1.913663,-4.945846 -7.031865,-7.763186 -12.291785,-6.545626 -2.485285,0.57529 -3.944321,2.914588 -3.369256,5.398898 z m 4.573658,37.744022 c 1.05,6.75 2.55,14.1 4.5,20.999 l 6.149,0 c 0.9,0 1.5,0.601 1.5,1.5 0,0.9 -0.6,1.5 -1.5,1.5 l -5.399,0 c 1.65,5.55 -0.144975,10.491838 -1.696607,14.854743 6.659844,-2.499797 13.395607,-18.003743 15.345607,-26.853743 l -8.25,0 c -0.899,0 -1.5,-0.601 -1.5,-1.5 0,-0.9 0.601,-1.5 1.5,-1.5 l 9,0 c 1.35,-7.2 2.55,-14.249 2.85,-20.999 l -11.733042,5.49437 c -0.814154,0.381254 -0.772337,-0.970372 -1.5,-1.5 -0.727664,-0.529628 0.684015,-1.122681 1.5,-1.5 l 11.882042,-5.49437 0,-3 c 0,-4.949 -4.049,-9 -8.999,-9 l -5.999,0 c -4.951,0 -9,4.051 -9,9 l 0,3 c 0,3.449 0.3,7.649 0.899,12 l 11.1,0 c 0.9,0 1.5,0.6 1.5,1.5 0,0.899 -0.6,1.499 -1.5,1.499 z m 9.024139,-45.5106112 c -0.371876,-1.6065209 -2.136707,-2.583696 -3.598066,-2.2454223 -0.876816,0.2029643 -1.653349,0.8435876 -2.101383,1.5641895 2.394777,0.3684307 4.45308,1.2787 6.173258,2.72811 z m 3.396527,1.3703292 c 0.910269,-2.0583025 2.357506,-3.7790033 4.201419,-5.1296276 -0.721053,-0.449983 -1.55299,-0.7182796 -2.428831,-0.5155409 -1.606521,0.3718756 -2.618272,1.9917708 -2.246397,3.5982918 z m 1.589436,6.86644 c 1.460236,-2.338548 3.673928,-4.082701 6.596647,-4.759249 0.875841,-0.202738 1.325824,-0.923791 1.123085,-1.799633 -0.202739,-0.875841 0.24627,-1.5966684 1.122111,-1.7994072 0.876816,-0.2029642 1.596895,0.2472442 1.799633,1.1230852 0.202739,0.875842 0.923792,1.325825 1.799633,1.123086 0.876816,-0.202964 1.325825,-0.923792 1.123086,-1.7996332 -0.575065,-2.4843105 -2.913614,-3.9445472 -5.398899,-3.3692563 -5.258945,1.2173345 -8.618575,5.9971135 -8.165296,11.2810075 z"
         id="path3339"
         sodipodi:nodetypes="sscsscssscscscssscsscssscscsssssssscssccssscccsssccssscssssscssscssccsccssccsssssssc"
         transform="matrix(-0.74074074,0,0,0.74074074,162.42395,13.348287)" />
      <path
         d="m -134.41426,121.92426 a 4.068203,2.4409218 0 0 1 -3.05078,2.36336"
         sodipodi:end="1.3180208"
         sodipodi:start="0"
         sodipodi:ry="2.4409218"
         sodipodi:rx="4.068203"
         sodipodi:cy="121.92426"
         sodipodi:cx="-138.48247"
         sodipodi:type="arc"
         transform="matrix(-0.90178405,0.43218691,0.43218691,0.90178405,0,0)"
         id="path4269"
         style="fill:none;stroke:#000000;stroke-width:2.12598419;stroke-miterlimit:4;stroke-dasharray:none;stroke-opacity:1"
         sodipodi:open="true" />
      <rect
         transform="matrix(-0.88302298,-0.46932975,-0.46932975,0.88302298,0,0)"
         y="-44.407085"
         x="-172.88293"
         height="4.0912414"
         width="0.63925642"
         id="rect4271"
         style="fill:none;stroke:#000000;stroke-width:2.12598419;stroke-miterlimit:4;stroke-dasharray:none;stroke-opacity:1" />
      <path
         inkscape:connector-curvature="0"
         id="path3363-4"
         d="m 130.22806,17.578689 -8.57143,0.89285 -4.10714,1.96429 -8.75,-2.678571 -3.57143,0 -1.25,-4.285719 9.46429,-3.9285697 3.75,0.5357197 3.57143,-0.5357197 5.53571,1.6071397 3.39286,1.25 z"
         style="fill:#008000;fill-rule:evenodd;stroke:#000000;stroke-width:1.00000012px;stroke-linecap:butt;stroke-linejoin:miter;stroke-opacity:1" />
      <path
         inkscape:connector-curvature="0"
         id="path3361-8"
         d="m 117.01378,77.757256 -3.39286,-7.499996 c 0,0 -7.5,-21.96429 -6.78572,-25.000001 0.71429,-3.035719 0.35715,-14.82143 1.42858,-15.17857 1.07142,-0.35715 5.89285,-3.57143 8.75,-3.03572 2.85714,0.53572 8.21428,0 10.35714,6.428571 2.14286,6.428569 -6.96429,44.821426 -10.35714,44.285716 z"
         style="fill:#ff7f2a;fill-rule:evenodd;stroke:#000000;stroke-width:1.00000012px;stroke-linecap:butt;stroke-linejoin:miter;stroke-opacity:1" />
      <path
         inkscape:connector-curvature="0"
         d="m 128.27775,34.760991 c 0,-4.888889 -3.99926,-8.88889 -8.88889,-8.88889 l -1.11037,0 0,-1.11111 c 0,-3.110371 2.44445,-5.554816 5.55482,-5.554816 0.77852,0 1.66667,-0.222222 2.22222,-0.777777 0.55556,0.555555 1.33407,0.777777 2.22222,0.777777 1.88963,0 3.33334,-1.444444 3.33334,-3.333333 0,-3.11037 -2.44445,-5.554815 -5.55556,-5.554815 -0.55555,0 -1.11111,0 -1.55555,0.11037 -0.77778,-1.3333327 -2.33334,-2.3325917 -4.00001,-2.3325917 -1.33259,0 -2.4437,0.555555 -3.33259,1.555555 -0.77778,-1 -2,-1.555555 -3.33333,-1.555555 -1.66667,0 -3.11111,1 -3.88889,2.3325917 -0.55556,-0.11037 -1.11037,-0.11037 -1.66593,-0.11037 -3.11185,0 -5.55555,2.444445 -5.55555,5.554815 0,1.888889 1.4437,3.333333 3.33333,3.333333 0.88815,0 1.66667,-0.222222 2.22222,-0.777777 0.55556,0.555555 1.44371,0.777777 2.22149,0.777777 3.11111,0 5.55555,2.444445 5.55555,5.554816 l 0,1.11111 -1.11111,0 c -4.88889,0 -8.88815,4.000001 -8.88815,8.88889 l 0,2.222222 c 0,11.110371 4.22148,29.99852 9.11037,40.886663 0.33334,0.66667 1,1.33408 2,1.33408 1,0 1.66593,-0.55555 2,-1.33408 4.88889,-10.888143 9.11037,-29.776292 9.11037,-40.886663 l 0,-2.222222 z m 1.11111,-18.888149 c 0,0.665926 -0.44444,1.111111 -1.11111,1.111111 -0.66666,0 -1.11111,-0.445185 -1.11111,-1.111111 0,-0.665926 -0.44444,-1.111111 -1.11111,-1.111111 -0.66593,0 -1.11111,0.445185 -1.11111,1.111111 0,0.665926 -0.44444,1.111111 -1.11111,1.111111 -2.22222,0 -4.11037,0.888889 -5.55482,2.332593 0.55482,-3.888889 3.77778,-6.777037 7.77704,-6.777037 1.88963,0 3.33333,1.444444 3.33333,3.333333 z m -4.33333,32.220742 c -0.77778,5 -1.88889,10.444445 -3.33333,15.554815 l -4.55482,0 c -0.66666,0 -1.11111,0.445185 -1.11111,1.111111 0,0.666667 0.44445,1.111111 1.11111,1.111111 l 3.99926,0 c -1.22222,4.111112 -2.55481,7.999995 -3.99926,11.111115 -2.22222,-4.777781 -4.66666,-13.443707 -6.11111,-19.999263 l 6.11111,0 c 0.66593,0 1.11111,-0.445185 1.11111,-1.111111 0,-0.666667 -0.44518,-1.111111 -1.11111,-1.111111 l -6.66666,0 c -1,-5.333334 -1.88889,-10.554815 -2.11112,-15.554815 l 8.77778,0 c 0.66593,0 1.11111,-0.444445 1.11111,-1.111112 0,-0.666666 -0.44518,-1.111111 -1.11111,-1.111111 l -8.88815,0 0,-2.222222 c 0,-3.665926 2.99926,-6.666667 6.66593,-6.666667 l 4.4437,0 c 3.66741,0 6.66667,3.000741 6.66667,6.666667 l 0,2.222222 c 0,2.554815 -0.22222,5.665926 -0.66593,8.888889 l -8.22222,0 c -0.66666,0 -1.11111,0.444444 -1.11111,1.111112 0,0.665926 0.44445,1.11037 1.11111,1.11037 l 7.88815,0 z m -6.77704,-35.554075 c 0,-1.221482 1.11037,-2.221482 2.22148,-2.221482 0.66667,0 1.33408,0.332593 1.77778,0.777778 -1.66666,0.665926 -3,1.666667 -3.99926,3 l 0,-1.556296 z m -2.22222,1.556296 c -1.00074,-1.333333 -2.33259,-2.333333 -3.88889,-3 0.44519,-0.445185 1.00074,-0.777778 1.66667,-0.777778 1.22148,0 2.22222,1 2.22222,2.221482 l 0,1.556296 z m 0,5.220741 c -1.44444,-1.443704 -3.33333,-2.332593 -5.55555,-2.332593 -0.66593,0 -1.11112,-0.445185 -1.11112,-1.111111 0,-0.665926 -0.44444,-1.111111 -1.11037,-1.111111 -0.66666,0 -1.11111,0.445185 -1.11111,1.111111 0,0.665926 -0.44518,1.111111 -1.11111,1.111111 -0.66667,0 -1.11111,-0.445185 -1.11111,-1.111111 0,-1.888889 1.4437,-3.333333 3.33333,-3.333333 3.99852,0 7.22149,2.888148 7.77704,6.777037 z"
         id="path3339-1" />
      <path
         sodipodi:open="true"
         d="m -78.048481,87.298782 a 4.068203,2.4409218 0 0 1 -1.801707,2.027013 4.068203,2.4409218 0 0 1 -3.809259,0.231584"
         sodipodi:end="1.9597545"
         sodipodi:start="0"
         sodipodi:ry="2.4409218"
         sodipodi:rx="4.068203"
         sodipodi:cy="87.298782"
         sodipodi:cx="-82.116684"
         sodipodi:type="arc"
         transform="matrix(-0.90178405,0.43218691,0.43218691,0.90178405,0,0)"
         id="path4269-4"
         style="fill:none;stroke:#000000;stroke-width:2.12598419;stroke-miterlimit:4;stroke-dasharray:none;stroke-opacity:1" />
      <rect
         y="35.951084"
         x="-106.42908"
         height="4.0912414"
         width="0.63925642"
         id="rect4271-5"
         style="fill:none;stroke:#000000;stroke-width:2.12598419;stroke-miterlimit:4;stroke-dasharray:none;stroke-opacity:1"
         transform="scale(-1,1)" />
    </g>
  </g>
</svg>
