<?xml version="1.0" encoding="UTF-8" standalone="no"?>
<!-- Created with Inkscape (http://www.inkscape.org/) -->

<svg
   xmlns:dc="http://purl.org/dc/elements/1.1/"
   xmlns:cc="http://creativecommons.org/ns#"
   xmlns:rdf="http://www.w3.org/1999/02/22-rdf-syntax-ns#"
   xmlns:svg="http://www.w3.org/2000/svg"
   xmlns="http://www.w3.org/2000/svg"
   xmlns:sodipodi="http://sodipodi.sourceforge.net/DTD/sodipodi-0.dtd"
   xmlns:inkscape="http://www.inkscape.org/namespaces/inkscape"
   width="25.181747mm"
   height="23.283897mm"
   viewBox="0 0 89.226664 82.501998"
   id="svg2"
   version="1.1"
   inkscape:version="0.91pre3 r13670"
   sodipodi:docname="melon.svg">
  <defs
     id="defs4" />
  <sodipodi:namedview
     id="base"
     pagecolor="#ffffff"
     bordercolor="#666666"
     borderopacity="1.0"
     inkscape:pageopacity="0.0"
     inkscape:pageshadow="2"
     inkscape:zoom="2.6832913"
     inkscape:cx="84.76272"
     inkscape:cy="12.867217"
     inkscape:document-units="px"
     inkscape:current-layer="g3392"
     showgrid="false"
     fit-margin-top="0"
     fit-margin-left="0"
     fit-margin-right="0"
     fit-margin-bottom="0"
     inkscape:window-width="1920"
     inkscape:window-height="1018"
     inkscape:window-x="-8"
     inkscape:window-y="-8"
     inkscape:window-maximized="1" />
  <metadata
     id="metadata7">
    <rdf:RDF>
      <cc:Work
         rdf:about="">
        <dc:format>image/svg+xml</dc:format>
        <dc:type
           rdf:resource="http://purl.org/dc/dcmitype/StillImage" />
        <dc:title></dc:title>
      </cc:Work>
    </rdf:RDF>
  </metadata>
  <g
     inkscape:label="Calque 1"
     inkscape:groupmode="layer"
     id="layer1"
     transform="translate(-184.31524,-507.18263)">
    <g
       id="g3351"
       transform="matrix(0.74074072,0,0,0.74074072,117.09507,511.57492)">
      <g
         id="g3337">
        <g
           id="g3392"
           transform="matrix(-1.35,0,0,1.35,219.27233,-18.020187)">
          <g
             id="g4349">
            <path
               sodipodi:nodetypes="ccsscc"
               inkscape:connector-curvature="0"
               id="path4240"
               d="M 50.66522,11.27899 7.45148,67.27785 c 0,0 7.15967,17.64348 25.82596,20.71191 18.66629,3.06843 45.923983,2.277326 57.02168,-13.55223 6.699657,-9.556271 3.32413,-7.41538 3.32413,-7.41538 z"
               style="fill:#d5d5ff;fill-rule:evenodd;stroke:#000000;stroke-width:1px;stroke-linecap:butt;stroke-linejoin:miter;stroke-opacity:1" />
            <path
               sodipodi:nodetypes="ccccccccccccccccccccsccccccccccccccccccccccccccccccccccccccc"
               style="fill:#000000;stroke:none"
               inkscape:connector-curvature="0"
               d="M 94.92,66.286 90.718,60.768 51.693,9.503 C 51.43,9.158 51.021,8.956 50.587,8.956 l 0,0 c -0.434,0 -0.843,0.203 -1.106,0.548 L 6.254,66.286 c -0.01,0.013 -0.011,0.028 -0.02,0.041 -0.092,0.13 -0.162,0.272 -0.205,0.422 -0.005,0.017 -0.013,0.032 -0.017,0.049 -0.037,0.151 -0.042,0.308 -0.027,0.465 0.003,0.033 0.007,0.064 0.012,0.097 0.006,0.035 0.005,0.07 0.013,0.104 0.458,1.835 1.217,3.65 2.253,5.395 l 0.003,0.006 c 0.002,0.003 0.004,0.005 0.005,0.008 0.003,0.006 0.006,0.011 0.009,0.017 0.038,0.064 0.083,0.126 0.122,0.19 6.15,10.593 20.774,17.469 38.609,18.281 0.851,0.044 1.704,0.078 2.559,0.09 0.338,0.005 0.676,0.007 1.016,0.007 0.34,0 0.678,-0.002 1.016,-0.007 0.012,0 0.024,-10e-4 0.036,-10e-4 14.122,-0.192 26.886,-4.317 35.021,-11.321 0.003,-0.002 0.004,-0.006 0.006,-0.008 0.016,-0.013 0.033,-0.026 0.049,-0.039 l 0.139,-0.12 c 4.288,-3.639 7.161,-7.96 8.307,-12.495 0.106,-0.409 0.017,-0.844 -0.24,-1.181 z M 87.747,61.969 C 82.26,70.371 69.458,79.988 50.931,79.989 L 50.596,79.988 C 40.564,79.926 31.31,77.274 24.379,72.512 38.227094,42.268187 51.253758,13.658152 51.253758,13.658152 c 0,0 18.786125,24.800415 36.493242,48.310848 z M 51.34,13.63 c 0,0 -0.603358,22.503057 0,0 z M 22.103,70.805 C 18.58,67.915 15.832,64.42 14.08,60.598 32.001116,38.007582 45.817815,18.759776 45.817815,18.759776 c 0,0 -8.540071,22.369951 -23.714815,52.045224 z M 10.671,71.468 C 9.892,70.161 9.295,68.815 8.892,67.458 l 3.424,-4.135 c 2.029,3.794 4.966,7.231 8.595,10.085 l -2.72,5.94 c -3.287,-2.365 -5.815,-5.01 -7.52,-7.88 z m 74.358,6.398 -0.167,0.143 C 77.093,84.5 64.645,88.486 51.564,88.671 c -0.649,0.009 -1.303,0.009 -1.953,0 -0.007,0 -0.014,0 -0.02,-0.001 -0.804,-0.01 -1.594,-0.048 -2.385,-0.083 -9.919,-0.509 -19.457,-3.255 -26.668,-7.686 l 2.664,-5.818 c 7.403,4.967 16.826,7.619 27.377,7.685 l 0.353,0.001 C 70.17,82.768 83.651,72.892 89.714,64.036 l 2.578,3.386 c -1.108,3.744 -3.599,7.335 -7.263,10.444 z"
               id="path3368" />
            <path
               inkscape:connector-curvature="0"
               d="m 48.133,56.645 c -0.146,-0.22 -0.274,-0.352 -0.41,-0.521 -0.135,-0.16 -0.284,-0.293 -0.426,-0.44 -0.277,-0.303 -0.609,-0.523 -0.912,-0.785 -0.311,-0.251 -0.658,-0.442 -0.986,-0.664 -0.323,-0.233 -0.692,-0.373 -1.04,-0.556 L 43.831,53.42 c -0.172,-0.096 -0.365,-0.138 -0.546,-0.209 l -1.103,-0.384 c -0.366,-0.132 -0.753,-0.179 -1.128,-0.271 l -1.133,-0.243 c -0.283,-0.061 -0.567,0.113 -0.639,0.397 -0.073,0.29 0.103,0.585 0.393,0.658 l 0.063,0.016 1.052,0.266 c 0.347,0.099 0.709,0.151 1.042,0.287 l 1.003,0.388 c 0.164,0.071 0.341,0.114 0.494,0.207 l 0.47,0.252 c 0.307,0.177 0.642,0.311 0.919,0.531 0.283,0.209 0.591,0.388 0.853,0.617 0.108,0.102 0.224,0.197 0.339,0.294 l -0.171,0.006 c -0.322,0 -0.627,0.049 -0.936,0.087 -0.307,0.042 -0.619,0.07 -0.917,0.136 -1.214,0.21 -2.383,0.521 -3.549,0.887 -0.276,0.087 -0.438,0.377 -0.362,0.659 0.078,0.29 0.375,0.462 0.665,0.384 l 0.009,-0.003 c 1.125,-0.301 2.28,-0.557 3.427,-0.704 0.287,-0.051 0.572,-0.063 0.858,-0.09 0.285,-0.023 0.572,-0.058 0.848,-0.043 l 0.417,0.004 c 0.136,0.007 0.285,-0.013 0.409,0.017 l 0.765,0.121 0.001,0 0.126,0.013 c 0.15,0.015 0.307,-0.02 0.442,-0.11 0.312,-0.209 0.398,-0.631 0.191,-0.945 z"
               id="path3370" />
            <path
               inkscape:connector-curvature="0"
               d="m 70.032,53.402 c -1.221,-0.049 -2.432,-0.045 -3.658,0.069 -0.306,0.014 -0.614,0.068 -0.921,0.108 -0.308,0.043 -0.615,0.075 -0.926,0.16 l -0.167,0.039 c 0.085,-0.123 0.172,-0.245 0.25,-0.372 0.194,-0.29 0.445,-0.543 0.663,-0.818 0.211,-0.284 0.498,-0.502 0.749,-0.752 L 66.41,51.47 c 0.122,-0.13 0.283,-0.218 0.422,-0.329 l 0.867,-0.636 c 0.286,-0.217 0.622,-0.363 0.931,-0.548 l 0.947,-0.531 0.058,-0.032 c 0.253,-0.142 0.35,-0.46 0.216,-0.72 -0.137,-0.266 -0.464,-0.371 -0.729,-0.234 l -1.03,0.53 c -0.338,0.187 -0.7,0.333 -1.019,0.556 l -0.965,0.658 c -0.156,0.116 -0.331,0.207 -0.473,0.344 l -0.442,0.388 c -0.288,0.267 -0.608,0.498 -0.859,0.808 -0.258,0.3 -0.544,0.575 -0.779,0.898 -0.224,0.332 -0.488,0.631 -0.676,0.996 -0.099,0.179 -0.208,0.346 -0.297,0.536 -0.087,0.199 -0.177,0.36 -0.26,0.61 -0.048,0.143 -0.048,0.304 0.01,0.456 0.133,0.351 0.527,0.528 0.878,0.395 l 0.118,-0.045 10e-4,0 0.707,-0.316 c 0.112,-0.061 0.262,-0.08 0.39,-0.123 l 0.402,-0.112 c 0.262,-0.086 0.549,-0.128 0.83,-0.179 0.283,-0.048 0.561,-0.111 0.852,-0.137 1.146,-0.157 2.328,-0.212 3.493,-0.215 l 0.011,0 c 0.289,-10e-4 0.529,-0.23 0.54,-0.521 0.011,-0.3 -0.222,-0.553 -0.522,-0.565 z"
               id="path3372" />
            <path
               style="fill:#000000"
               inkscape:connector-curvature="0"
               d="m 51.122039,67.98888 c 0.037,0.271 0.087,0.535 0.147,0.793 0.048,0.202 0.2,0.363 0.399,0.423 1.447,0.432 3.06,0.547 4.668,0.334 1.608,-0.213 3.136,-0.745 4.42,-1.539 0.176,-0.109 0.281,-0.304 0.274,-0.511 -0.008,-0.265 -0.029,-0.536 -0.065,-0.807 -0.278,-2.099 -1.329,-3.856 -2.73,-4.833 -0.044,-0.061 -0.095,-0.118 -0.162,-0.159 -0.714,-0.444 -1.502,-0.678 -2.279,-0.678 -0.173,0 -0.346,0.011 -0.52,0.034 -0.009,0.001 -0.017,0.005 -0.026,0.006 -0.012,0.002 -0.025,0.001 -0.037,0.003 -2.713,0.36 -4.548,3.469 -4.089,6.934 z m 3.721,-5.643 c 0.126,-0.042 0.253,-0.082 0.386,-0.106 0.057,-0.012 0.112,-0.031 0.17,-0.039 0.574,-0.068 1.139,0.048 1.666,0.306 -0.527,1.42 -1.954,2.49 -3.701,2.722 -0.298,0.039 -0.592,0.05 -0.881,0.041 0.384,-1.439 1.266,-2.522 2.36,-2.924 z m -2.596,4.056 c 0.418,0.029 0.84,0.033 1.269,-0.024 2.063,-0.273 3.771,-1.516 4.518,-3.194 0.907,0.846 1.584,2.152 1.782,3.651 0.016,0.118 0.028,0.236 0.037,0.353 -1.083,0.613 -2.344,1.027 -3.67,1.203 -1.327,0.175 -2.653,0.103 -3.856,-0.205 -0.022,-0.116 -0.041,-0.233 -0.057,-0.35 -0.064,-0.494 -0.059,-0.97 -0.023,-1.434 z"
               id="path3378" />
            <g
               id="g4257">
              <path
                 style="fill:none;fill-rule:evenodd;stroke:#000000;stroke-width:2.12598419;stroke-linecap:butt;stroke-linejoin:miter;stroke-miterlimit:4;stroke-dasharray:none;stroke-opacity:1"
                 d="M 75.76902,42.88555 86.66188,24.84984"
                 id="path3403"
                 inkscape:connector-curvature="0" />
              <circle
                 style="fill:#ffffff;stroke:#000000;stroke-width:2.12598419;stroke-miterlimit:4;stroke-dasharray:none"
                 id="path3405"
                 cx="-87.64402"
                 cy="21.189121"
                 r="4.1964288"
                 transform="scale(-1,1)" />
            </g>
            <g
               id="g4261">
              <path
                 style="fill:none;fill-rule:evenodd;stroke:#000000;stroke-width:2.12598419;stroke-linecap:butt;stroke-linejoin:miter;stroke-miterlimit:4;stroke-dasharray:none;stroke-opacity:1"
                 d="M 34.37047,48.773899 45.26333,30.738189"
                 id="path3403-4"
                 inkscape:connector-curvature="0" />
              <circle
                 style="fill:#ffffff;stroke:#000000;stroke-width:2.12598419;stroke-miterlimit:4;stroke-dasharray:none"
                 id="path3405-3"
                 cx="-46.245487"
                 cy="27.077475"
                 r="4.1964288"
                 transform="scale(-1,1)" />
            </g>
          </g>
        </g>
      </g>
    </g>
  </g>
</svg>
